<?xml version="1.0" ?><!DOCTYPE svg  PUBLIC '-//W3C//DTD SVG 1.1//EN'  'http://www.w3.org/Graphics/SVG/1.1/DTD/svg11.dtd'><svg enable-background="new 0 0 75 75" height="75px" version="1.1" viewBox="0 0 75 75" width="75px" xml:space="preserve" xmlns="http://www.w3.org/2000/svg" xmlns:xlink="http://www.w3.org/1999/xlink"><g id="Layer_1"><g><g><g><g><path d="M21.415,6.267c-2.764,0-5.003,2.24-5.003,5.004c0,2.762,2.239,5.002,5.003,5.002h24.202V6.267H21.415z" fill="#F26606"/></g><g><path d="M16.744,13.021c0.712,1.895,2.526,3.252,4.671,3.252h24.202V9.767H21.415       C19.27,9.767,17.456,11.124,16.744,13.021z" fill="#E5391C"/></g><g><path d="M16.412,11.271v52.461c0,2.762,2.239,5.002,5.003,5.002h37.174v-5.002v-5.004V16.272H21.415       C18.651,16.272,16.412,14.032,16.412,11.271z" fill="#ED9015"/></g><g><path d="M20.596,16.19c-2.371-0.393-4.185-2.438-4.185-4.92v52.461c0,2.482,1.813,4.527,4.185,4.92V16.19z" fill="#E5810A"/></g><g><polygon fill="#EAB818" points="58.588,58.728 58.588,16.272 45.617,16.272 45.617,68.733 58.588,68.733 58.588,63.731             "/></g></g><g><g><path d="M45.617,17.022H21.415c-3.172,0-5.753-2.58-5.753-5.752c0-3.173,2.581-5.754,5.753-5.754h24.202       c0.414,0,0.75,0.336,0.75,0.75v10.006C46.367,16.687,46.031,17.022,45.617,17.022z M21.415,7.017       c-2.345,0-4.253,1.908-4.253,4.254c0,2.345,1.908,4.252,4.253,4.252h23.452V7.017H21.415z" fill="#093260"/></g><g><path d="M58.588,69.483H21.415c-3.172,0-5.753-2.58-5.753-5.752V11.271c0-0.414,0.336-0.75,0.75-0.75       s0.75,0.336,0.75,0.75c0,2.345,1.908,4.252,4.253,4.252h37.174c0.414,0,0.75,0.336,0.75,0.75v52.461       C59.338,69.147,59.002,69.483,58.588,69.483z M17.162,15.14v48.591c0,2.345,1.908,4.252,4.253,4.252h36.424V17.022H21.415       C19.731,17.022,18.214,16.296,17.162,15.14z" fill="#093260"/></g></g></g><g><g><g><g><path d="M23.292,48.19c-1.162-1.162-3.047-1.162-4.209,0l-1.915,1.914l-0.001-0.002l-4.212,4.211        c-1.162,1.164-3.048,1.164-4.21,0l5.141,5.143c1.162,1.162,3.047,1.162,4.21-0.002l1.915-1.912l0,0l4.212-4.213        c1.162-1.16,3.048-1.16,4.21,0.002L23.292,48.19z" fill="#1BC1A9"/></g><g><path d="M32.347,43.36c-1.163-1.162-3.048-1.162-4.21,0.002l-1.914,1.912h-0.001l-2.924,2.924l5.134,5.133        l4.846-4.83c1.162-1.162,3.047-1.162,4.209,0L32.347,43.36z" fill="#1BC1A9"/></g><g><path d="M35.043,46.058l-2.696-2.697c-1.163-1.162-3.048-1.162-4.21,0.002l-1.73,1.73        c0.467,0.602,0.973,1.197,1.543,1.768c1.256,1.256,2.613,2.252,3.969,2.996l1.359-1.355c0.705-0.705,1.674-0.975,2.59-0.824        C35.633,47.14,35.363,46.599,35.043,46.058z" fill="#0CAFAF"/></g><g><path d="M15.989,61.077c-0.995,0-1.93-0.388-2.634-1.091l-5.141-5.143h0c-0.292-0.294-0.292-0.769,0-1.061        c0.293-0.293,0.768-0.293,1.061,0h0c0.841,0.844,2.308,0.844,3.148,0l4.212-4.211c0.013-0.014,0.027-0.026,0.041-0.038        l1.875-1.874c1.407-1.408,3.862-1.408,5.27,0l5.141,5.141c0.146,0.146,0.22,0.338,0.22,0.53s-0.073,0.384-0.22,0.53        c-0.293,0.293-0.768,0.293-1.061,0c-0.84-0.842-2.309-0.842-3.15-0.001l-6.127,6.124        C17.921,60.689,16.985,61.077,15.989,61.077z M11.389,55.898l3.026,3.027c0.841,0.84,2.308,0.842,3.149-0.002l6.127-6.125        c0.575-0.574,1.305-0.938,2.096-1.052l-3.027-3.026c-0.841-0.84-2.308-0.84-3.148,0l-1.915,1.914        c-0.013,0.014-0.027,0.026-0.041,0.038l-4.172,4.171C12.91,55.42,12.18,55.784,11.389,55.898z" fill="#093260"/></g><g><path d="M28.432,54.081c-0.192,0-0.384-0.073-0.53-0.22l-5.134-5.133c-0.141-0.141-0.22-0.331-0.22-0.53        s0.079-0.39,0.22-0.53l4.839-4.836c1.405-1.41,3.861-1.41,5.27-0.002l5.14,5.141c0.293,0.293,0.293,0.768,0,1.061        s-0.768,0.293-1.061,0c-0.841-0.84-2.308-0.84-3.148,0l-4.847,4.831C28.815,54.008,28.624,54.081,28.432,54.081z         M24.359,48.198l4.074,4.073l4.315-4.302c0.574-0.574,1.304-0.938,2.095-1.052l-3.026-3.027        c-0.841-0.84-2.308-0.842-3.149,0.002L24.359,48.198z" fill="#093260"/></g></g><g><g><path d="M51.708,48.19c1.162-1.162,3.048-1.162,4.21,0l1.914,1.914l0.002-0.002l4.211,4.211        c1.162,1.164,3.048,1.164,4.21,0l-5.14,5.143c-1.162,1.162-3.048,1.162-4.211-0.002l0.623,0.625h-0.001l-6.748-6.748        c-1.163-1.162-3.048-1.162-4.21,0L51.708,48.19z" fill="#1BC1A9"/></g><g><path d="M42.653,43.36c1.163-1.162,3.049-1.162,4.211,0l1.914,1.914l0,0l2.924,2.924l-5.133,5.133l-4.846-4.83        c-1.162-1.162-3.048-1.162-4.21,0L42.653,43.36z" fill="#1BC1A9"/></g><g><path d="M39.957,46.058l2.696-2.697c1.163-1.162,3.049-1.162,4.211,0l1.73,1.732        c-0.467,0.602-0.973,1.197-1.543,1.768c-1.256,1.256-2.613,2.252-3.97,2.996l-1.358-1.355        c-0.705-0.705-1.676-0.975-2.59-0.824C39.367,47.14,39.637,46.599,39.957,46.058z" fill="#0CAFAF"/></g><g><path d="M59.012,61.077c-0.476,0-0.938-0.088-1.367-0.257c-0.231,0.036-0.471-0.035-0.647-0.211l-0.002-0.002        l0,0.001l-6.747-6.747c-0.841-0.839-2.308-0.84-3.149,0c-0.293,0.293-0.768,0.293-1.061,0s-0.293-0.768,0-1.061l5.14-5.141        c1.407-1.408,3.863-1.408,5.271,0l1.869,1.868c0.016,0.014,0.032,0.028,0.047,0.044l4.211,4.211        c0.842,0.844,2.308,0.844,3.149,0h0c0.292-0.293,0.768-0.293,1.06,0c0.293,0.292,0.293,0.767,0.001,1.061h0l-5.14,5.143        C60.942,60.689,60.007,61.077,59.012,61.077z M57.394,58.886c0.014,0.012,0.028,0.024,0.042,0.038        c0.84,0.843,2.308,0.842,3.15,0.002l3.026-3.027c-0.792-0.114-1.521-0.479-2.097-1.055l-4.165-4.165        c-0.016-0.014-0.032-0.028-0.047-0.044l-1.914-1.914c-0.841-0.84-2.309-0.84-3.149,0l-3.026,3.027        c0.791,0.113,1.521,0.478,2.097,1.053L57.394,58.886z" fill="#093260"/></g><g><path d="M46.569,54.081c-0.191,0-0.383-0.073-0.529-0.219l-4.846-4.83c-0.843-0.842-2.31-0.841-3.15-0.001        c-0.293,0.293-0.768,0.293-1.061,0s-0.293-0.768,0-1.061l5.14-5.141c1.408-1.408,3.864-1.408,5.271,0l4.838,4.838        c0.141,0.141,0.22,0.331,0.22,0.53s-0.079,0.39-0.22,0.53l-5.133,5.133C46.953,54.008,46.761,54.081,46.569,54.081z         M40.157,46.918c0.791,0.113,1.521,0.478,2.097,1.053l4.314,4.301l4.073-4.073l-4.308-4.308c-0.841-0.84-2.309-0.84-3.15,0        L40.157,46.918z" fill="#093260"/></g></g></g><g><g><g><path d="M35.552,33.173c-4.325-4.324-9.871-5.791-12.39-3.273c-0.873,0.875-1.258,2.121-1.218,3.551        c2.683,0.076,6.019,1.668,8.84,4.49s4.415,6.158,4.49,8.84c1.43,0.039,2.675-0.344,3.55-1.219        C41.342,43.044,39.877,37.497,35.552,33.173z" fill="#1BC1A9"/></g><g><path d="M22.405,31.044c-0.322,0.703-0.485,1.512-0.46,2.406c2.683,0.076,6.019,1.668,8.84,4.49        s4.415,6.158,4.49,8.84c0.894,0.025,1.702-0.137,2.406-0.461c1.259-2.818-0.336-7.465-4.073-11.203        C29.871,31.38,25.224,29.784,22.405,31.044z" fill="#0CAFAF"/></g><g><g><path d="M23.809,29.394c0.072-0.047,0.148-0.09,0.225-0.133C23.958,29.304,23.882,29.347,23.809,29.394z" fill="#F26606"/></g><g><path d="M21.989,32.562c-0.027,0.238-0.039,0.484-0.035,0.736C21.951,33.046,21.961,32.8,21.989,32.562z" fill="#F26606"/></g><g><path d="M22.274,31.331c0.072-0.197,0.16-0.389,0.262-0.57C22.434,30.942,22.346,31.134,22.274,31.331z" fill="#F26606"/></g><g><path d="M22.667,30.536c0.14-0.217,0.293-0.424,0.475-0.607C22.961,30.114,22.806,30.319,22.667,30.536z" fill="#F26606"/></g><g><path d="M22.006,32.364c0.041-0.291,0.105-0.57,0.191-0.836C22.112,31.794,22.047,32.073,22.006,32.364z" fill="#F26606"/></g><g><path d="M24.606,28.999c0.065-0.023,0.128-0.053,0.195-0.074C24.734,28.946,24.671,28.976,24.606,28.999z" fill="#F26606"/></g><g><path d="M40.053,42.003c-0.003,0-0.007-0.002-0.011-0.002c0.001,0.051,0.003,0.102,0.004,0.152         C40.045,42.103,40.055,42.054,40.053,42.003z" fill="#F26606"/></g><g><path d="M26.723,28.683c0-0.004,0-0.008,0-0.012c-0.053-0.002-0.1,0.008-0.15,0.008         C26.622,28.679,26.672,28.681,26.723,28.683z" fill="#F26606"/></g><g><path d="M23.202,29.868c-0.008,0.008-0.02,0.014-0.027,0.021c-0.002,0.002-0.003,0.004-0.005,0.006         C23.18,29.886,23.192,29.878,23.202,29.868z" fill="#F26606"/></g><g><path d="M25.637,28.733c0.066-0.01,0.134-0.012,0.199-0.02C25.771,28.722,25.704,28.724,25.637,28.733z" fill="#F26606"/></g><g><path d="M39.992,43.087c0.009-0.064,0.012-0.133,0.019-0.199C40.003,42.954,40,43.022,39.992,43.087z" fill="#F26606"/></g><g><path d="M39.725,44.118c0.023-0.064,0.054-0.127,0.076-0.195C39.779,43.991,39.749,44.054,39.725,44.118z" fill="#F26606"/></g><g><path d="M38.83,45.556c0.003-0.002,0.003-0.002,0.005-0.004c0.009-0.01,0.014-0.021,0.021-0.029         C38.847,45.532,38.84,45.546,38.83,45.556z" fill="#F26606"/></g><g><path d="M39.333,44.915c0.047-0.072,0.088-0.148,0.131-0.225C39.42,44.767,39.377,44.843,39.333,44.915z" fill="#F26606"/></g><g><path d="M38.796,45.583c-0.186,0.182-0.392,0.336-0.608,0.475C38.405,45.919,38.611,45.765,38.796,45.583z" fill="#F26606"/></g><g><path d="M37.197,46.528c-0.267,0.084-0.546,0.148-0.837,0.189C36.651,46.677,36.93,46.612,37.197,46.528z" fill="#F26606"/></g><g><path d="M35.426,46.772c0.254,0.002,0.498-0.012,0.737-0.035C35.924,46.761,35.678,46.774,35.426,46.772z" fill="#F26606"/></g><g><path d="M37.965,46.188c-0.184,0.102-0.374,0.189-0.572,0.262C37.591,46.378,37.782,46.29,37.965,46.188z" fill="#F26606"/></g><g><path d="M30.785,37.94c-2.817-2.818-6.148-4.412-8.829-4.49c0.08,2.68,1.673,6.01,4.49,8.828         c2.818,2.818,6.148,4.412,8.828,4.49C35.196,44.089,33.602,40.757,30.785,37.94z" fill="#109BAD"/></g><g><path d="M24.987,34.097c0.718,1.938,2.02,3.975,3.843,5.799c1.824,1.822,3.861,3.125,5.799,3.844         c-0.72-1.939-2.021-3.977-3.844-5.799C28.961,36.116,26.924,34.815,24.987,34.097z" fill="#0E7987"/></g></g><g><path d="M35.472,47.533L35.472,47.533l-0.217-0.003c-0.398-0.011-0.718-0.331-0.729-0.729        c-0.072-2.576-1.709-5.768-4.271-8.331c-2.561-2.561-5.752-4.198-8.331-4.271c-0.397-0.011-0.717-0.331-0.728-0.729        c-0.048-1.694,0.449-3.112,1.437-4.102c0.95-0.95,2.291-1.452,3.878-1.452c3.035,0,6.613,1.766,9.572,4.725        c2.184,2.184,3.746,4.744,4.397,7.211c0.689,2.608,0.29,4.824-1.125,6.238C38.412,47.034,37.069,47.533,35.472,47.533z         M22.713,32.755c2.814,0.328,5.974,2.027,8.602,4.655c2.63,2.631,4.329,5.791,4.655,8.603        c0.974-0.082,1.754-0.411,2.324-0.981c1.021-1.021,1.282-2.724,0.735-4.795c-0.584-2.214-2.008-4.534-4.007-6.533        c-2.644-2.643-5.905-4.285-8.512-4.285c-1.181,0-2.155,0.35-2.817,1.012C23.027,31.097,22.781,31.98,22.713,32.755z" fill="#093260"/></g><g><g><path d="M23.81,30.144c-0.246,0-0.487-0.121-0.631-0.344c-0.224-0.347-0.125-0.811,0.222-1.036         c0.085-0.055,0.175-0.106,0.264-0.157c0.359-0.204,0.818-0.076,1.022,0.285c0.065,0.116,0.097,0.243,0.097,0.367         c0,0.262-0.137,0.517-0.381,0.655c-0.064,0.036-0.127,0.072-0.189,0.111C24.088,30.105,23.948,30.144,23.81,30.144z" fill="#093260"/></g><g><path d="M21.954,34.048c-0.409,0-0.744-0.328-0.75-0.738c-0.004-0.285,0.009-0.564,0.04-0.833         c0.047-0.412,0.428-0.704,0.831-0.66c0.383,0.044,0.665,0.369,0.665,0.745c0,0.028-0.001,0.057-0.005,0.086         c-0.024,0.208-0.033,0.422-0.03,0.642c0.005,0.414-0.326,0.753-0.74,0.759C21.96,34.048,21.957,34.048,21.954,34.048z" fill="#093260"/></g><g><path d="M22.274,32.081c-0.086,0-0.173-0.015-0.258-0.046c-0.304-0.111-0.493-0.398-0.492-0.704         c0-0.086,0.015-0.173,0.046-0.258c0.086-0.235,0.19-0.462,0.311-0.679c0.203-0.361,0.659-0.489,1.021-0.289         c0.246,0.138,0.384,0.393,0.384,0.656c0,0.124-0.031,0.249-0.095,0.365c-0.083,0.147-0.154,0.302-0.212,0.462         C22.867,31.893,22.58,32.081,22.274,32.081z" fill="#093260"/></g><g><path d="M22.666,31.286c-0.139,0-0.28-0.039-0.406-0.12c-0.222-0.143-0.344-0.384-0.344-0.63         c0-0.139,0.039-0.28,0.12-0.406c0.189-0.294,0.371-0.526,0.572-0.729c0.291-0.293,0.764-0.296,1.058-0.009         c0.295,0.289,0.301,0.761,0.014,1.058c-0.133,0.137-0.258,0.298-0.383,0.492C23.154,31.165,22.912,31.286,22.666,31.286z" fill="#093260"/></g><g><path d="M22.007,33.114c-0.035,0-0.07-0.002-0.105-0.007c-0.375-0.053-0.646-0.375-0.646-0.743         c0-0.034,0.002-0.069,0.007-0.104c0.046-0.33,0.121-0.654,0.221-0.962c0.127-0.394,0.55-0.611,0.944-0.482         c0.317,0.103,0.519,0.396,0.519,0.712c0,0.077-0.012,0.155-0.037,0.232c-0.073,0.227-0.127,0.465-0.162,0.709         C22.696,32.844,22.375,33.114,22.007,33.114z" fill="#093260"/></g><g><path d="M24.606,29.749c-0.308,0-0.596-0.19-0.706-0.497c-0.03-0.084-0.044-0.169-0.044-0.253         c0-0.308,0.191-0.596,0.497-0.706l0.253,0.706l-0.199-0.727c0.055-0.022,0.109-0.043,0.167-0.062         c0.395-0.127,0.817,0.092,0.942,0.486c0.024,0.076,0.036,0.152,0.036,0.228c0,0.318-0.203,0.613-0.522,0.715         c-0.009,0.004-0.161,0.062-0.17,0.066C24.775,29.735,24.69,29.749,24.606,29.749z" fill="#093260"/></g><g><path d="M40.047,42.906c-0.357,0-0.658-0.252-0.732-0.589c-0.011-0.048-0.017-0.097-0.018-0.146         c0-0.001,0-0.002,0-0.003c0-0.013,0.001-0.04,0.002-0.069h-0.003c-0.006-0.202,0.069-0.437,0.21-0.582         c0.171-0.177,0.42-0.298,0.669-0.254c0.346,0.057,0.614,0.35,0.628,0.711c0.001,0.031-0.003,0.14-0.005,0.17         c0.008,0.414-0.322,0.754-0.736,0.762C40.057,42.905,40.052,42.906,40.047,42.906z" fill="#093260"/></g><g><path d="M26.721,29.433c-0.009,0-0.018,0-0.027,0l-0.122-0.003c-0.414,0-0.75-0.336-0.75-0.75         s0.336-0.75,0.75-0.75c0.441-0.048,0.9,0.282,0.9,0.742c0,0.204-0.083,0.405-0.23,0.546         C27.103,29.353,26.916,29.433,26.721,29.433z" fill="#093260"/></g><g><path d="M23.175,30.636c-0.207,0-0.412-0.083-0.558-0.247c-0.251-0.281-0.26-0.696-0.021-0.979         c0.015-0.017,0.03-0.035,0.045-0.05c0.022-0.022,0.052-0.048,0.08-0.07c0.293-0.287,0.741-0.264,1.032,0.027         c0.293,0.293,0.271,0.788-0.022,1.081l0,0c-0.008,0.008-0.017,0.016-0.026,0.025c-0.019,0.017-0.04,0.035-0.053,0.046         C23.512,30.581,23.343,30.636,23.175,30.636z" fill="#093260"/></g><g><path d="M25.698,29.478c-0.37,0-0.716-0.266-0.771-0.638c-0.006-0.041-0.009-0.081-0.009-0.121         c0-0.361,0.241-0.672,0.61-0.727c0.054-0.008,0.109-0.013,0.163-0.017c0.402-0.031,0.809,0.263,0.849,0.669         c0.002,0.029,0.004,0.057,0.004,0.085c0,0.371-0.242,0.685-0.619,0.73c-0.01,0.001-0.105,0.01-0.115,0.011         C25.773,29.475,25.735,29.478,25.698,29.478z" fill="#093260"/></g><g><path d="M39.993,43.837c-0.034,0-0.068-0.002-0.103-0.007c-0.375-0.052-0.648-0.373-0.648-0.742         c0-0.033,0.002-0.067,0.007-0.103l0.007-0.077l0.754-0.021l0.746,0.077l-0.021,0.224         C40.684,43.564,40.362,43.837,39.993,43.837z" fill="#093260"/></g><g><path d="M39.717,44.822c-0.083,0-0.167-0.015-0.247-0.046c-0.3-0.117-0.493-0.38-0.493-0.674         c0-0.079,0.014-0.16,0.043-0.24c0.004-0.011,0.041-0.104,0.045-0.113c0.129-0.394,0.563-0.638,0.958-0.509         c0.318,0.104,0.527,0.382,0.527,0.692c0,0.073-0.012,0.149-0.037,0.225c-0.019,0.057-0.041,0.112-0.063,0.166         C40.328,44.62,40.025,44.822,39.717,44.822z" fill="#093260"/></g><g><path d="M38.843,46.322c-0.15,0-0.305-0.047-0.442-0.142c-0.102-0.069-0.179-0.162-0.23-0.267         c-0.147-0.27-0.114-0.604,0.084-0.841c0.015-0.019,0.031-0.038,0.044-0.053l0,0c0.009-0.01,0.018-0.02,0.027-0.028         c0.287-0.288,0.753-0.294,1.046-0.014c0.282,0.268,0.311,0.702,0.076,1.004c-0.019,0.025-0.04,0.053-0.056,0.071         c-0.001,0.001-0.002,0.002-0.003,0.003C39.249,46.233,39.05,46.322,38.843,46.322z" fill="#093260"/></g><g><path d="M39.332,45.665c-0.138,0-0.277-0.038-0.402-0.117c-0.347-0.221-0.452-0.68-0.234-1.028l0.114-0.197         c0.204-0.362,0.662-0.487,1.022-0.285c0.361,0.204,0.488,0.661,0.285,1.021c-0.066,0.118-0.108,0.192-0.155,0.265         C39.818,45.545,39.578,45.665,39.332,45.665z" fill="#093260"/></g><g><path d="M38.188,46.808c-0.247,0-0.489-0.122-0.632-0.346c-0.08-0.126-0.118-0.266-0.118-0.404         c0-0.247,0.123-0.489,0.346-0.632c0.196-0.125,0.356-0.249,0.488-0.379c0.294-0.29,0.77-0.285,1.061,0.012         c0.143,0.146,0.214,0.334,0.214,0.523c0,0.195-0.075,0.39-0.226,0.537c-0.207,0.202-0.445,0.389-0.729,0.57         C38.467,46.77,38.327,46.808,38.188,46.808z" fill="#093260"/></g><g><path d="M36.359,47.468c-0.368,0-0.689-0.271-0.742-0.646c-0.005-0.035-0.007-0.07-0.007-0.104         c0-0.368,0.271-0.689,0.646-0.742c0.242-0.034,0.483-0.089,0.716-0.163c0.399-0.124,0.816,0.095,0.941,0.49         c0.023,0.075,0.035,0.15,0.035,0.226c0,0.318-0.205,0.614-0.524,0.716c-0.312,0.098-0.634,0.171-0.958,0.216         C36.429,47.466,36.394,47.468,36.359,47.468z" fill="#093260"/></g><g><path d="M35.474,47.522L35.474,47.522L35.474,47.522L35.474,47.522L35.474,47.522c-0.002,0-0.003,0-0.004,0         c-0.01-0.001-0.048,0-0.05,0c-0.414-0.003-0.747-0.342-0.744-0.756c0.003-0.412,0.338-0.744,0.75-0.744         c0.002,0,0.004,0,0.006,0l0,0l0,0c0.005,0,0.009,0,0.014,0c0,0,0,0,0,0h0.002c0.001,0,0.001,0,0.002,0c0,0,0,0,0,0         c0.01-0.003,0.015,0,0.022,0c0.202,0,0.4-0.011,0.593-0.029c0.008-0.001,0.016-0.002,0.023-0.002         c0.408-0.05,0.779,0.26,0.82,0.673c0.002,0.025,0.003,0.05,0.003,0.074c0,0.382-0.29,0.708-0.677,0.745         C35.989,47.508,35.736,47.522,35.474,47.522z" fill="#093260"/></g><g><path d="M37.393,47.2c-0.306,0-0.594-0.188-0.705-0.493c-0.031-0.085-0.046-0.172-0.045-0.258         c0-0.306,0.189-0.593,0.493-0.704c0.162-0.059,0.316-0.13,0.466-0.213c0.361-0.2,0.819-0.069,1.02,0.293         c0.064,0.115,0.094,0.24,0.094,0.363c0,0.264-0.14,0.52-0.387,0.656c-0.218,0.12-0.444,0.225-0.679,0.311         C37.565,47.186,37.479,47.2,37.393,47.2z" fill="#093260"/></g><g><path d="M35.274,47.519c-0.007,0-0.015,0-0.022,0c-2.984-0.087-6.475-1.848-9.336-4.71         c-2.86-2.86-4.621-6.351-4.709-9.336c-0.006-0.207,0.073-0.406,0.219-0.553c0.146-0.146,0.353-0.23,0.553-0.219         c2.986,0.087,6.477,1.848,9.337,4.709c2.861,2.86,4.622,6.351,4.708,9.337c0.006,0.206-0.073,0.406-0.219,0.552         C35.664,47.439,35.473,47.519,35.274,47.519z M22.783,34.277c0.361,2.402,1.91,5.188,4.193,7.471         c2.285,2.284,5.069,3.834,7.471,4.193c-0.36-2.402-1.909-5.188-4.192-7.471C27.971,36.187,25.186,34.637,22.783,34.277z" fill="#093260"/></g></g></g><g><g><path d="M39.448,33.173c4.325-4.324,9.871-5.791,12.39-3.273c0.874,0.875,1.258,2.121,1.218,3.551        c-2.682,0.076-6.018,1.668-8.84,4.49c-2.821,2.822-4.414,6.158-4.49,8.84c-1.43,0.041-2.674-0.344-3.549-1.219        C33.659,43.044,35.124,37.497,39.448,33.173z" fill="#1BC1A9"/></g><g><path d="M52.594,31.044c0.324,0.703,0.486,1.512,0.461,2.406c-2.682,0.076-6.018,1.668-8.84,4.49        c-2.821,2.822-4.414,6.158-4.49,8.84c-0.893,0.025-1.702-0.137-2.406-0.461c-1.259-2.818,0.336-7.465,4.074-11.203        C45.129,31.38,49.776,29.784,52.594,31.044z" fill="#0CAFAF"/></g><g><g><path d="M51.192,29.394c-0.073-0.047-0.149-0.09-0.227-0.133C51.043,29.304,51.118,29.347,51.192,29.394z" fill="#F26606"/></g><g><path d="M53.012,32.562c0.025,0.238,0.039,0.484,0.035,0.736C53.049,33.046,53.038,32.8,53.012,32.562z" fill="#F26606"/></g><g><path d="M52.727,31.331c-0.073-0.197-0.161-0.389-0.262-0.57C52.566,30.942,52.654,31.134,52.727,31.331z" fill="#F26606"/></g><g><path d="M52.334,30.536c-0.139-0.217-0.294-0.424-0.475-0.607C52.04,30.114,52.196,30.319,52.334,30.536z" fill="#F26606"/></g><g><path d="M52.994,32.364c-0.04-0.291-0.105-0.57-0.19-0.836C52.889,31.794,52.953,32.073,52.994,32.364z" fill="#F26606"/></g><g><path d="M50.395,28.999c-0.066-0.023-0.129-0.053-0.195-0.074C50.266,28.946,50.329,28.976,50.395,28.999z" fill="#F26606"/></g><g><path d="M34.948,42.003c0.002,0,0.006-0.002,0.01-0.002c-0.001,0.051-0.002,0.102-0.004,0.152         C34.956,42.103,34.946,42.054,34.948,42.003z" fill="#F26606"/></g><g><path d="M48.277,28.683c-0.001-0.004,0.001-0.008,0.001-0.012c0.052-0.002,0.1,0.01,0.15,0.008         C48.379,28.679,48.327,28.681,48.277,28.683z" fill="#F26606"/></g><g><path d="M51.799,29.868c0.008,0.008,0.019,0.014,0.028,0.021c0.001,0.002,0.002,0.004,0.003,0.006         C51.821,29.886,51.809,29.878,51.799,29.868z" fill="#F26606"/></g><g><path d="M49.362,28.733c-0.064-0.01-0.133-0.012-0.198-0.02C49.229,28.722,49.297,28.724,49.362,28.733z" fill="#F26606"/></g><g><path d="M35.008,43.087c-0.009-0.064-0.012-0.133-0.018-0.199C34.997,42.954,35,43.022,35.008,43.087z" fill="#F26606"/></g><g><path d="M35.275,44.118c-0.024-0.064-0.054-0.127-0.076-0.195C35.221,43.991,35.25,44.054,35.275,44.118z" fill="#F26606"/></g><g><path d="M36.17,45.556c-0.001-0.002-0.003-0.002-0.004-0.004c-0.01-0.01-0.014-0.021-0.022-0.029         C36.153,45.532,36.161,45.546,36.17,45.556z" fill="#F26606"/></g><g><path d="M35.668,44.915c-0.047-0.072-0.088-0.146-0.131-0.225C35.58,44.767,35.623,44.843,35.668,44.915z" fill="#F26606"/></g><g><path d="M36.204,45.583c0.186,0.182,0.391,0.336,0.608,0.475C36.594,45.919,36.389,45.765,36.204,45.583z" fill="#F26606"/></g><g><path d="M37.803,46.528c0.267,0.084,0.546,0.148,0.838,0.189C38.349,46.677,38.07,46.612,37.803,46.528z" fill="#F26606"/></g><g><path d="M39.574,46.772c-0.253,0.002-0.497-0.012-0.737-0.037C39.077,46.761,39.322,46.774,39.574,46.772z" fill="#F26606"/></g><g><path d="M37.036,46.188c0.183,0.102,0.373,0.189,0.572,0.262C37.409,46.378,37.218,46.29,37.036,46.188z" fill="#F26606"/></g><g><path d="M44.215,37.94c2.818-2.818,6.149-4.41,8.829-4.49c-0.079,2.68-1.673,6.01-4.489,8.828         c-2.818,2.818-6.149,4.412-8.828,4.49C39.805,44.089,41.399,40.757,44.215,37.94z" fill="#109BAD"/></g><g><path d="M50.014,34.097c-0.719,1.938-2.02,3.975-3.844,5.799c-1.824,1.822-3.859,3.125-5.799,3.844         c0.72-1.939,2.021-3.977,3.844-5.799C46.04,36.116,48.077,34.815,50.014,34.097z" fill="#0E7987"/></g></g><g><path d="M39.521,47.533c-1.592,0-2.932-0.498-3.875-1.441c-1.414-1.414-1.814-3.63-1.125-6.238        c0.651-2.466,2.213-5.027,4.396-7.211c2.959-2.958,6.537-4.725,9.572-4.725c1.587,0,2.928,0.502,3.878,1.451        c0.988,0.989,1.485,2.407,1.437,4.102c-0.011,0.397-0.331,0.717-0.728,0.729c-2.578,0.073-5.77,1.71-8.331,4.271        c-2.561,2.562-4.198,5.754-4.271,8.331c-0.011,0.397-0.331,0.717-0.728,0.729L39.521,47.533z M48.49,29.418        c-2.606,0-5.868,1.642-8.512,4.285c-3.957,3.957-5.455,9.145-3.271,11.328c0.572,0.571,1.352,0.901,2.323,0.982        c0.327-2.813,2.026-5.974,4.655-8.604c2.628-2.628,5.788-4.328,8.602-4.655c-0.068-0.776-0.314-1.659-0.98-2.326        C50.645,29.768,49.671,29.418,48.49,29.418z" fill="#093260"/></g><g><g><path d="M51.191,30.144c-0.137,0-0.276-0.038-0.4-0.116l-0.191-0.112c-0.361-0.201-0.492-0.657-0.292-1.019         c0.2-0.362,0.656-0.494,1.018-0.294l0.115,0.065c0.004,0.003,0.009,0.005,0.014,0.008l0.002,0.001         c0.007,0.004,0.015,0.009,0.022,0.013l0.116,0.071c0.348,0.223,0.45,0.686,0.229,1.034         C51.682,30.021,51.439,30.144,51.191,30.144z" fill="#093260"/></g><g><path d="M53.047,34.048c-0.003,0-0.006,0-0.009,0c-0.413-0.005-0.744-0.343-0.741-0.756         c0.002-0.223-0.008-0.44-0.031-0.651c-0.003-0.027-0.004-0.055-0.004-0.082c0-0.378,0.286-0.703,0.67-0.744         c0.412-0.044,0.781,0.254,0.825,0.666c0.029,0.268,0.044,0.544,0.04,0.828C53.791,33.72,53.457,34.048,53.047,34.048z" fill="#093260"/></g><g><path d="M52.727,32.081c-0.305,0-0.591-0.187-0.703-0.489c-0.06-0.162-0.132-0.319-0.215-0.468         c-0.064-0.115-0.094-0.24-0.094-0.363c0-0.264,0.14-0.52,0.387-0.656c0.362-0.2,0.818-0.069,1.02,0.293         c0.119,0.214,0.222,0.44,0.309,0.672c0.032,0.086,0.047,0.174,0.047,0.26c0,0.305-0.187,0.592-0.489,0.704         C52.902,32.066,52.814,32.081,52.727,32.081z" fill="#093260"/></g><g><path d="M52.335,31.286c-0.247,0-0.489-0.122-0.632-0.346c0-0.001-0.001-0.001-0.001-0.002         c-0.121-0.189-0.245-0.348-0.38-0.487c-0.288-0.297-0.281-0.77,0.015-1.059c0.295-0.289,0.768-0.285,1.059,0.011         c0.202,0.205,0.388,0.442,0.57,0.726c0,0.001,0.001,0.002,0.002,0.003c0.08,0.125,0.118,0.266,0.118,0.404         c0,0.247-0.123,0.489-0.346,0.632C52.613,31.248,52.474,31.286,52.335,31.286z" fill="#093260"/></g><g><path d="M52.993,33.114c-0.368,0-0.689-0.271-0.742-0.646c-0.018-0.125-0.04-0.247-0.067-0.367         c-0.027-0.118-0.059-0.233-0.095-0.345c-0.126-0.394,0.091-0.816,0.485-0.942c0.396-0.125,0.816,0.09,0.943,0.483         c0.05,0.153,0.093,0.31,0.129,0.47c0.037,0.161,0.067,0.326,0.091,0.495c0.056,0.41-0.23,0.788-0.64,0.845         C53.062,33.112,53.027,33.114,52.993,33.114z" fill="#093260"/></g><g><path d="M50.38,29.748c-0.077,0-0.155-0.013-0.234-0.042c-0.01-0.003-0.107-0.041-0.117-0.044         c-0.323-0.105-0.547-0.416-0.546-0.742c0-0.072,0.011-0.144,0.034-0.214c0.128-0.395,0.52-0.623,0.915-0.494         c0.054,0.017,0.106,0.038,0.158,0.059c0.301,0.121,0.508,0.426,0.508,0.738c0,0.08-0.014,0.161-0.043,0.239         C50.939,29.55,50.676,29.748,50.38,29.748z" fill="#093260"/></g><g><path d="M34.954,42.903c-0.01,0-0.02,0-0.029-0.001c-0.404-0.016-0.722-0.348-0.721-0.749         c0-0.003,0-0.007,0-0.01c-0.002-0.038-0.006-0.147-0.005-0.169c0.014-0.357,0.275-0.648,0.615-0.71         c0.254-0.046,0.506,0.035,0.68,0.212c0.141,0.144,0.218,0.339,0.214,0.54l-0.004,0.141c0,0.009,0,0.017,0,0.025         C35.688,42.586,35.355,42.903,34.954,42.903z" fill="#093260"/></g><g><path d="M48.276,29.433c-0.343,0-0.644-0.234-0.728-0.569c-0.021-0.087-0.027-0.183-0.017-0.274         c0.04-0.365,0.342-0.654,0.717-0.668c0.039,0.002,0.144,0.004,0.178,0.007c0.003,0,0.006,0.001,0.008,0.001         c0.395,0.015,0.723,0.333,0.732,0.731c0.01,0.41-0.301,0.752-0.711,0.768c-0.012,0-0.032-0.002-0.046,0l-0.105,0.003         C48.296,29.433,48.287,29.433,48.276,29.433z" fill="#093260"/></g><g><path d="M51.851,30.646c-0.018,0-0.035,0-0.052-0.002c-0.179-0.007-0.355-0.078-0.492-0.211         c-0.015-0.013-0.029-0.025-0.038-0.034c-0.293-0.293-0.293-0.768,0-1.061c0.247-0.247,0.622-0.286,0.909-0.117         c0.25,0.122,0.423,0.378,0.423,0.675C52.601,30.31,52.265,30.646,51.851,30.646z" fill="#093260"/></g><g><path d="M49.363,29.483c-0.038,0-0.075-0.003-0.113-0.008l-0.06-0.006c-0.01,0-0.105-0.009-0.115-0.011         c-0.381-0.045-0.661-0.369-0.661-0.743c0-0.03,0.001-0.061,0.005-0.091c0.049-0.412,0.423-0.704,0.833-0.656         c0.112,0.009,0.167,0.015,0.222,0.022c0.371,0.057,0.637,0.375,0.638,0.74c0,0.038-0.002,0.076-0.008,0.114         C50.047,29.217,49.728,29.483,49.363,29.483z" fill="#093260"/></g><g><path d="M34.971,43.757c-0.355,0-0.656-0.202-0.706-0.568c-0.008-0.059-0.013-0.119-0.017-0.18         c-0.001-0.019-0.002-0.037-0.002-0.055c0-0.391,0.295-0.749,0.687-0.78c0.415-0.035,0.769,0.237,0.805,0.647         c0.005,0.036,0.007,0.071,0.007,0.107c0,0.38-0.267,0.769-0.642,0.819C35.059,43.754,35.014,43.757,34.971,43.757z" fill="#093260"/></g><g><path d="M35.275,44.868c-0.303,0-0.588-0.185-0.701-0.484l0.701-0.266l-0.723,0.213         c-0.023-0.057-0.046-0.114-0.066-0.174c-0.025-0.078-0.038-0.156-0.038-0.234c0-0.315,0.2-0.608,0.516-0.713         c0.397-0.129,0.818,0.086,0.947,0.479c0.003,0.007,0.062,0.157,0.065,0.164c0.033,0.088,0.049,0.178,0.049,0.267         c0,0.302-0.185,0.587-0.484,0.7C35.453,44.853,35.363,44.868,35.275,44.868z" fill="#093260"/></g><g><path d="M36.205,46.313c-0.101,0-0.202-0.019-0.298-0.056c-0.098-0.036-0.189-0.094-0.267-0.172         c0,0-0.001-0.001-0.001-0.001c-0.001-0.001-0.002-0.002-0.003-0.003l0,0c-0.002-0.002-0.004-0.005-0.007-0.007         c-0.021-0.022-0.042-0.046-0.06-0.07c-0.004-0.005-0.008-0.01-0.011-0.015c-0.236-0.295-0.216-0.725,0.054-0.996         c0.28-0.283,0.732-0.298,1.03-0.032c0.02,0.018,0.04,0.037,0.059,0.059l0,0c0.016,0.019,0.032,0.037,0.046,0.056         c0,0.001,0,0.001,0.001,0.002c0.006,0.008,0.013,0.016,0.019,0.024c0.254,0.277,0.24,0.675-0.004,0.964         C36.623,46.232,36.416,46.313,36.205,46.313z" fill="#093260"/></g><g><path d="M35.669,45.665c-0.246,0-0.486-0.12-0.63-0.342c-0.056-0.087-0.106-0.176-0.158-0.27         c0-0.001,0-0.001,0-0.001l0-0.001c-0.2-0.362-0.067-0.818,0.295-1.019c0.363-0.197,0.818-0.068,1.019,0.295         c0.014,0.024,0.027,0.049,0.041,0.073c0.126,0.135,0.203,0.315,0.203,0.514c0,0.416-0.322,0.74-0.756,0.75         C35.678,45.665,35.673,45.665,35.669,45.665z" fill="#093260"/></g><g><path d="M36.812,46.808c-0.138,0-0.277-0.038-0.402-0.117c-0.282-0.18-0.521-0.367-0.73-0.571         c-0.15-0.147-0.226-0.342-0.226-0.537c0-0.189,0.071-0.378,0.214-0.523c0.291-0.297,0.766-0.301,1.061-0.012         c0.134,0.131,0.293,0.255,0.487,0.378c0.225,0.144,0.347,0.386,0.347,0.634c0,0.138-0.038,0.277-0.117,0.402         C37.302,46.685,37.059,46.808,36.812,46.808z" fill="#093260"/></g><g><path d="M38.642,47.468c-0.035,0-0.07-0.002-0.105-0.007c-0.324-0.046-0.646-0.119-0.959-0.217         c-0.32-0.102-0.525-0.397-0.524-0.716c0-0.075,0.011-0.15,0.035-0.226c0.124-0.396,0.542-0.615,0.941-0.49         c0.233,0.074,0.474,0.129,0.717,0.162c0.375,0.053,0.646,0.375,0.646,0.742c0,0.035-0.002,0.07-0.007,0.105         C39.331,47.197,39.01,47.468,38.642,47.468z" fill="#093260"/></g><g><path d="M39.526,47.522L39.526,47.522L39.526,47.522c-0.26,0-0.513-0.015-0.761-0.04l-0.007-0.001         c-0.386-0.041-0.672-0.367-0.671-0.746c0-0.026,0.001-0.053,0.004-0.079c0.043-0.411,0.424-0.706,0.824-0.667         c0.001,0,0.002,0,0.006,0.001c0.197,0.021,0.398,0.032,0.605,0.032l0,0v0.137v-0.137l0,0l0,0         c0.014,0,0.028,0.001,0.042,0.001v-0.001c0.002,0,0.004,0,0.006,0c0.412,0,0.747,0.332,0.75,0.744         c0.003,0.414-0.33,0.753-0.744,0.756v-0.002C39.562,47.522,39.544,47.522,39.526,47.522z" fill="#093260"/></g><g><path d="M37.608,47.2c-0.085,0-0.171-0.015-0.256-0.045c-0.237-0.086-0.464-0.19-0.681-0.312         c-0.247-0.137-0.386-0.393-0.385-0.656c0-0.123,0.03-0.248,0.095-0.363c0.2-0.364,0.658-0.494,1.02-0.291         c0.148,0.082,0.302,0.153,0.463,0.212c0.305,0.11,0.494,0.398,0.494,0.705c0,0.085-0.014,0.171-0.045,0.256         C38.202,47.011,37.915,47.2,37.608,47.2z" fill="#093260"/></g><g><path d="M39.727,47.519c-0.199,0-0.39-0.079-0.53-0.22c-0.146-0.146-0.226-0.346-0.219-0.552         c0.087-2.986,1.847-6.477,4.708-9.337c2.86-2.86,6.35-4.621,9.337-4.709c0.213-0.011,0.407,0.073,0.553,0.219         s0.226,0.346,0.219,0.552c-0.088,2.984-1.848,6.474-4.708,9.336c-2.862,2.862-6.352,4.623-9.336,4.71         C39.742,47.519,39.734,47.519,39.727,47.519z M52.217,34.278c-2.403,0.361-5.188,1.91-7.471,4.193         c-2.283,2.283-3.832,5.068-4.191,7.471c2.401-0.359,5.186-1.909,7.471-4.193C50.308,39.464,51.856,36.679,52.217,34.278z" fill="#093260"/></g></g></g></g><g><path d="M41.168,44.835c0,2.025-1.643,3.668-3.668,3.668l0,0c-2.026,0-3.668-1.643-3.668-3.668V33.759      c0-2.025,1.641-3.668,3.668-3.668l0,0c2.026,0,3.668,1.643,3.668,3.668V44.835z" fill="#1BC1A9"/></g><g><path d="M37.5,33.882c-2.026-0.002-3.668,1.641-3.668,3.668v7.285c0,2.025,1.642,3.668,3.668,3.668      c2.025,0,3.668-1.643,3.668-3.668V37.55C41.168,35.522,39.526,33.88,37.5,33.882z" fill="#0CAFAF"/></g><g><path d="M37.5,49.253c-2.436,0-4.418-1.981-4.418-4.418V33.759c0-2.436,1.982-4.418,4.418-4.418      s4.418,1.982,4.418,4.418v11.076C41.918,47.271,39.937,49.253,37.5,49.253z M37.5,30.841c-1.609,0-2.918,1.309-2.918,2.918      v11.076c0,1.609,1.309,2.918,2.918,2.918s2.918-1.309,2.918-2.918V33.759C40.418,32.15,39.109,30.841,37.5,30.841z" fill="#093260"/></g></g></g></g></svg>